<svg version="1" xmlns="http://www.w3.org/2000/svg" width="666.667" height="666.667" viewBox="0 0 500.000000 500.000000" preserveAspectRatio="xMidYMid meet"><metadata>Created by potrace 1.11, written by Peter Selinger 2001-2013</metadata><g fill="#000" stroke="none"><path d="M735 4885 c-348 -65 -616 -319 -712 -675 -17 -61 -18 -169 -18 -1705 l0 -1640 23 -85 c85 -321 331 -567 652 -652 l85 -23 1735 0 1735 0 85 23 c321 85 567 331 652 652 l23 85 0 1640 c0 1799 4 1669 -57 1825 -86 222 -286 422 -508 508 -157 61 -7 57 -1900 59 -1388 1 -1739 -1 -1795 -12z m3485 -96 c174 -28 312 -100 441 -228 130 -130 202 -270 229 -447 7 -47 10 -568 8 -1664 -3 -1505 -5 -1598 -22 -1655 -86 -285 -295 -492 -577 -572 -61 -17 -149 -18 -1799 -18 -1650 0 -1738 1 -1799 18 -282 80 -491 287 -577 572 -17 57 -19 150 -22 1655 -2 1096 1 1617 8 1664 27 177 99 317 229 447 125 125 268 200 433 228 79 13 3367 13 3448 0z" transform="translate(0.000000,500.000000) scale(0.100000,-0.100000)"/><path d="M3105 3869 c-84 -12 -117 -25 -152 -59 -55 -53 -68 -94 -68 -205 0 -86 4 -107 25 -150 35 -70 76 -95 158 -95 l64 0 -6 -62 c-22 -233 -31 -488 -31 -928 0 -514 10 -678 51 -836 63 -248 256 -373 580 -374 195 0 337 40 401 114 43 49 58 98 58 196 0 71 -4 93 -25 134 -40 80 -61 90 -184 88 -96 -2 -107 -1 -125 19 -11 12 -25 44 -30 71 -7 32 -11 335 -11 882 0 556 -4 852 -11 892 -31 169 -146 277 -328 310 -84 15 -273 16 -366 3z" transform="translate(0.000000,500.000000) scale(0.100000,-0.100000)"/><path d="M1465 3654 c-232 -22 -322 -46 -389 -105 -88 -78 -126 -184 -150 -424 -53 -516 -44 -1233 20 -1584 55 -305 203 -364 914 -365 272 -1 343 2 435 17 394 67 607 223 676 497 29 114 24 325 -10 412 -55 141 -166 255 -323 332 l-87 43 74 47 c131 83 229 219 256 354 14 76 7 213 -17 292 -75 255 -296 404 -694 465 -100 16 -600 29 -705 19z m525 -495 c72 -15 139 -64 169 -122 36 -71 41 -191 12 -268 -24 -62 -83 -136 -145 -181 -36 -26 -46 -28 -130 -29 -50 0 -124 -4 -163 -8 l-73 -7 0 307 c0 284 1 308 18 312 35 9 263 7 312 -4z m110 -998 c124 -39 187 -123 178 -234 -15 -186 -170 -267 -510 -267 l-108 0 0 259 0 260 33 4 c17 3 102 4 187 2 124 -2 168 -7 220 -24z" transform="translate(0.000000,500.000000) scale(0.100000,-0.100000)"/></g></svg>